<svg width="800" height="600" viewBox="0 0 800 600" fill="none" xmlns="http://www.w3.org/2000/svg">
  <!-- Background -->
  <rect width="800" height="600" rx="12" fill="#F9FAFB"/>
  
  <!-- Header -->
  <rect width="800" height="64" rx="12" fill="#FFFFFF"/>
  <rect x="32" y="20" width="120" height="24" rx="4" fill="#059669"/>
  <rect x="600" y="20" width="160" height="24" rx="4" fill="#D1FAE5"/>
  
  <!-- Sidebar -->
  <rect width="240" height="536" y="64" rx="0" fill="#FFFFFF"/>
  <rect x="32" y="96" width="176" height="24" rx="4" fill="#E5E7EB"/>
  <rect x="32" y="136" width="160" height="24" rx="4" fill="#E5E7EB"/>
  <rect x="32" y="176" width="144" height="24" rx="4" fill="#E5E7EB"/>
  
  <!-- Main Content -->
  <rect x="272" y="96" width="496" height="240" rx="8" fill="#FFFFFF"/>
  <rect x="296" y="120" width="448" height="192" rx="4" fill="#D1FAE5"/>
  
  <!-- Data Cards -->
  <rect x="272" y="360" width="240" height="120" rx="8" fill="#FFFFFF"/>
  <rect x="296" y="384" width="192" height="16" rx="2" fill="#059669"/>
  <rect x="296" y="416" width="192" height="40" rx="4" fill="#D1FAE5"/>
  
  <rect x="528" y="360" width="240" height="120" rx="8" fill="#FFFFFF"/>
  <rect x="552" y="384" width="192" height="16" rx="2" fill="#059669"/>
  <rect x="552" y="416" width="192" height="40" rx="4" fill="#D1FAE5"/>
  
  <!-- Chat Interface -->
  <rect x="272" y="504" width="496" height="96" rx="8" fill="#FFFFFF"/>
  <rect x="296" y="528" width="400" height="48" rx="24" fill="#F3F4F6"/>
  <circle cx="744" cy="552" r="24" fill="#059669"/>
</svg> 